# xmcd
#
# Track frame offsets: 
#        150
#        22997
#        50042
#        69875
#        95055
#        116357
#
# Disc length: 1958 seconds
#
# Revision: 1
# Processed by: cddbd v1.5.2PL0 Copyright (c) Steve Scherf et al.
# Submitted via: ExactAudioCopy v1.0b2
#
DISCID=4707a406
DTITLE=Art Blakey and The Jazz Messengers - Midnight Session
DYEAR=1957
DGENRE=Jazz
TTITLE0=Casino
TTITLE1=The "Biddie Griddies"
TTITLE2=Potpourri
TTITLE3=Ugh!
TTITLE4=Mirage
TTITLE5=Reflections Of Buhainia
EXTD=YEAR: 1957
EXTT0=
EXTT1=
EXTT2=
EXTT3=
EXTT4=
EXTT5=
PLAYORDER=
